<svg width="24" height="35" viewBox="0 0 24 35" fill="none" xmlns="http://www.w3.org/2000/svg">
<path d="M13.69 33.3114L13.6891 33.3132C13.5568 33.5796 13.3516 33.8041 13.0965 33.961C12.8415 34.1179 12.547 34.2008 12.2465 34.2C11.9431 34.1987 11.6462 34.1148 11.3881 33.9575C11.1305 33.8005 10.9216 33.5765 10.7841 33.3103C10.7839 33.3099 10.7836 33.3095 10.7834 33.3091L2.20746 16.3037C2.20723 16.3032 2.20701 16.3028 2.20678 16.3023C0.950471 13.7451 0.729576 10.8082 1.58933 8.09474C2.44927 5.38069 4.32524 3.09554 6.83259 1.70945C9.34001 0.323325 12.288 -0.0581113 15.0706 0.643812C17.8527 1.34562 20.2574 3.07691 21.7912 5.48116C22.8003 7.09202 23.3755 8.93249 23.462 10.8265C23.5485 12.7208 23.1431 14.6056 22.2846 16.3004L22.2845 16.3007L13.69 33.3114ZM19.9815 15.1723L19.9815 15.1723C20.6442 13.8632 20.9582 12.4076 20.8935 10.944C20.8288 9.48042 20.3875 8.05773 19.6119 6.81125C18.8362 5.56478 17.752 4.53607 16.4626 3.82268C15.1733 3.10931 13.7214 2.7349 12.2452 2.7349C10.769 2.7349 9.31718 3.10931 8.02781 3.82268C6.73843 4.53607 5.65424 5.56478 4.87858 6.81125C4.10292 8.05773 3.66165 9.48042 3.59693 10.944C3.53222 12.4076 3.84623 13.8632 4.50895 15.1723L4.50898 15.1723L11.9776 29.9191L12.2452 30.4475L12.5129 29.9191L19.9815 15.1723Z" fill="white" stroke="#15110D" stroke-width="0.6"/>
<path d="M9.3567 7.13478C10.2201 6.55791 11.2351 6.25 12.2734 6.25C13.6658 6.25 15.0012 6.80312 15.9857 7.78769C16.9703 8.77225 17.5234 10.1076 17.5234 11.5C17.5234 12.5384 17.2155 13.5534 16.6387 14.4167C16.0618 15.2801 15.2418 15.953 14.2825 16.3504C13.3232 16.7477 12.2676 16.8517 11.2492 16.6491C10.2308 16.4465 9.29535 15.9465 8.56113 15.2123C7.8269 14.4781 7.32689 13.5426 7.12432 12.5242C6.92174 11.5058 7.02571 10.4502 7.42307 9.49091C7.82043 8.5316 8.49334 7.71166 9.3567 7.13478ZM10.6067 13.9944C11.1001 14.324 11.6801 14.5 12.2734 14.5C13.0691 14.5 13.8321 14.1839 14.3948 13.6213C14.9574 13.0587 15.2734 12.2956 15.2734 11.5C15.2734 10.9067 15.0975 10.3266 14.7678 9.83329C14.4382 9.33994 13.9697 8.95542 13.4215 8.72836C12.8733 8.5013 12.2701 8.44189 11.6882 8.55764C11.1062 8.6734 10.5717 8.95912 10.1521 9.37868C9.73256 9.79824 9.44684 10.3328 9.33108 10.9147C9.21533 11.4967 9.27474 12.0999 9.5018 12.648C9.72886 13.1962 10.1134 13.6648 10.6067 13.9944Z" fill="white" stroke="#15110D" stroke-width="0.5"/>
</svg>
