<svg width="26" height="27" viewBox="0 0 26 27" fill="none" xmlns="http://www.w3.org/2000/svg">
<path d="M24.7727 19.7173V23.4808C24.7741 23.8302 24.7052 24.176 24.5706 24.4961C24.4359 24.8163 24.2385 25.1036 23.9908 25.3398C23.7432 25.576 23.4508 25.7558 23.1325 25.8678C22.8141 25.9797 22.4768 26.0213 22.1421 25.9898C18.4288 25.5704 14.862 24.2513 11.7281 22.1385C8.81249 20.2124 6.34055 17.6426 4.48784 14.6115C2.44847 11.3387 1.17933 7.6126 0.783232 3.73494C0.753077 3.38803 0.792735 3.03839 0.89968 2.70828C1.00663 2.37818 1.17852 2.07484 1.40441 1.81758C1.6303 1.56032 1.90524 1.35478 2.21173 1.21404C2.51822 1.0733 2.84954 1.00045 3.18459 1.00012H6.80473C7.39036 0.99413 7.9581 1.20972 8.40213 1.60671C8.84617 2.00371 9.13619 2.55501 9.21816 3.15787C9.37096 4.36227 9.65432 5.54484 10.0629 6.68302C10.2252 7.13204 10.2604 7.62003 10.1641 8.08917C10.0679 8.55831 9.84428 8.98893 9.51984 9.33002L7.98731 10.9232C9.70513 14.0639 12.2065 16.6644 15.2276 18.4503L16.7601 16.857C17.0882 16.5197 17.5024 16.2873 17.9537 16.1872C18.405 16.0872 18.8744 16.1237 19.3063 16.2925C20.4011 16.7172 21.5386 17.0118 22.6971 17.1707C23.2833 17.2566 23.8187 17.5636 24.2014 18.0331C24.584 18.5027 24.7874 19.1021 24.7727 19.7173Z" stroke="white" stroke-width="1.5" stroke-linecap="round" stroke-linejoin="round"/>
</svg>
